/* XPM */
static char *result[] = {
/* columns rows colors chars-per-pixel */
"64 64 5 1 ",
"  c #FF9800",
". c #FFAE00",
"X c gainsboro",
"o c #F3F3F3",
"O c white",
/* pixels */
"OOOOOOOOOOOOOOOOOOOOOOOOOOOOOOOOOOOOOOOOOOOOOOOOOOOOOOOOOOOOOOOO",
"OOOOOOOOOOOOOOOOOOOOOOOOOOOOOOOOOOOOOOOOOOOOOOOOOOOOOOOOOOOOOOOO",
"OOOOOOOOOOOOOOOOOOOOOOOOOOOOOOOOOOOOOOOOOOOOOOOOOOOOOOOOOOOOOOOO",
"OOOOOOOOOOOOOOOOOOOOOOOOOOOOOOOOOOOOOOOOOOOOOOOOOOOOOOOOOOOOOOOO",
"OOOOOOOOOOOOOOOOOOOOOOOOOOOOOOOOOOOOOOOOOOOOOOOOOOOOOOOOOOOOOOOO",
"OOOOOOOOOOOOOOOOOOOOOOOOOOOOOOOOOOOOOOOOOOOOOOOOOOOOOOOOOOOOOOOO",
"OOOOOOOOOOOOOOOOOOOOOOOOOOOOOOOOOOOOOOOOOOOOOOOOOOOOOOOOOOOOOOOO",
"OOOOOOOOOOOOOOOOOOOOOOOOOOOOOOOOOOOOOOOOOOOOOOOOOOOOOOOOOOOOOOOO",
"OOOOOOOOOOOOOOOOOOOOOOOOOOOOOOOOOOOOOOOOOOOOOOOOOOOOOOOOOOOOOOOO",
"OOOOOOOOOOOOOOOOOOOOOOOOOOOOOOOOOOOOOOOOOOOOOOOOOOOOOOOOOOOOOOOO",
"OOOOOOOOOOOOOOOOOOOOOOOOOOOOOOOOOOOOOOOOOOOOOOOOOOOOOOOOOOOOOOOO",
"OOOOOOOOOOOOOOOOOOOOOOOOOOOOOOOOOOOOOOOOOOOOOOOOOOOOOOOOOOOOOOOO",
"OOOOOOOOOOOOOOOOOOOOOOOOOOOOOOOOOOOOOOOOOOOOOOOOOOOOOOOOOOOOOOOO",
"OOOOOOOOOOOOOOOOOOOOOOOOOOOOOOOOOOOOOOOOOOOOOOOOOOOOOOOOOOOOOOOO",
"OOOOOOOOOOOOOOOOOOOOOOOOOOOOOOOOOOOOOOOOOOOOOOOOOOOOOOOOOOOOOOOO",
"OOOOOOOOOOOOOOOOOOOOOOOOOOOOOOooooOOOOOOOOOOOOOOOOOOOOOOOOOOOOOO",
"OOOOOOOOOOOOOOOOOOOOOOOOOOOOOoXXXXoOOOOOOOOOOOOOOOOOOOOOOOOOOOOO",
"OOOOOOOOOOOOOOOOOOOOOOOOOOOOoX    XoOOOOOOOOOOOOOOOOOOOOOOOOOOOO",
"OOOOOOOOOOOOOOOOOOOOOOOOOOOoX  ..  XoOOOOOOOOOOOOOOOOOOOOOOOOOOO",
"OOOOOOOOOOOOOOOOOOOOOOOOOOOoX .... XoOOOOOOOOOOOOOOOOOOOOOOOOOOO",
"OOOOOOOOOOOOOOOOOOOOOOOOOOoX  ....  XoOOOOOOOOOOOOOOOOOOOOOOOOOO",
"OOOOOOOOOOOOOOOOOOOOOOOOOOoX ...... XoOOOOOOOOOOOOOOOOOOOOOOOOOO",
"OOOOOOOOOOOOOOOOOOOOOOOOOoX  ......  XoOOOOOOOOOOOOOOOOOOOOOOOOO",
"OOOOOOOOOOOOOOOOOOOoooooooX ........ XoooooooOOOOOOOOOOOOOOOOOOO",
"OOOOOOOOOOOOOOOOOOoXXXXXXX  ........  XXXXXXXoOOOOOOOOOOOOOOOOOO",
"OOOOOOOOOOOOOOOOOoX        ..........        XoOOOOOOOOOOOOOOOOO",
"OOOOOOOOOOOOOOOOoX  ........................  XoOOOOOOOOOOOOOOOO",
"OOOOOOOOOOOOOOOOoX .......................... XoOOOOOOOOOOOOOOOO",
"OOOOOOOOOOOOOOOOoX .......................... XoOOOOOOOOOOOOOOOO",
"OOOOOOOOOOOOOOOOoX  ........................  XoOOOOOOOOOOOOOOOO",
"OOOOOOOOOOOOOOOOOoX  ......................  XoOOOOOOOOOOOOOOOOO",
"OOOOOOOOOOOOOOOOOOoX  ....................  XoOOOOOOOOOOOOOOOOOO",
"OOOOOOOOOOOOOOOOOOOoX  ..................  XoOOOOOOOOOOOOOOOOOOO",
"OOOOOOOOOOOOOOOOOOOOoX  ................  XoOOOOOOOOOOOOOOOOOOOO",
"OOOOOOOOOOOOOOOOOOOOoX  ................  XoOOOOOOOOOOOOOOOOOOOO",
"OOOOOOOOOOOOOOOOOOOOoX .................. XoOOOOOOOOOOOOOOOOOOOO",
"OOOOOOOOOOOOOOOOOOOOoX .................. XoOOOOOOOOOOOOOOOOOOOO",
"OOOOOOOOOOOOOOOOOOOOoX ..................  XoOOOOOOOOOOOOOOOOOOO",
"OOOOOOOOOOOOOOOOOOOoX .........  ......... XoOOOOOOOOOOOOOOOOOOO",
"OOOOOOOOOOOOOOOOOOOoX .......      ....... XoOOOOOOOOOOOOOOOOOOO",
"OOOOOOOOOOOOOOOOOOOoX ......  XXXX  ...... XoOOOOOOOOOOOOOOOOOOO",
"OOOOOOOOOOOOOOOOOOOoX ....   XooooX   .... XoOOOOOOOOOOOOOOOOOOO",
"OOOOOOOOOOOOOOOOOOOoX ...  XXoOOOOoXX  ... XoOOOOOOOOOOOOOOOOOOO",
"OOOOOOOOOOOOOOOOOOOoX     XooOOOOOOooX     XoOOOOOOOOOOOOOOOOOOO",
"OOOOOOOOOOOOOOOOOOOOoXXXXXoOOOOOOOOOOoXXXXXoOOOOOOOOOOOOOOOOOOOO",
"OOOOOOOOOOOOOOOOOOOOOoooooOOOOOOOOOOOOoooooOOOOOOOOOOOOOOOOOOOOO",
"OOOOOOOOOOOOOOOOOOOOOOOOOOOOOOOOOOOOOOOOOOOOOOOOOOOOOOOOOOOOOOOO",
"OOOOOOOOOOOOOOOOOOOOOOOOOOOOOOOOOOOOOOOOOOOOOOOOOOOOOOOOOOOOOOOO",
"OOOOOOOOOOOOOOOOOOOOOOOOOOOOOOOOOOOOOOOOOOOOOOOOOOOOOOOOOOOOOOOO",
"OOOOOOOOOOOOOOOOOOOOOOOOOOOOOOOOOOOOOOOOOOOOOOOOOOOOOOOOOOOOOOOO",
"OOOOOOOOOOOOOOOOOOOOOOOOOOOOOOOOOOOOOOOOOOOOOOOOOOOOOOOOOOOOOOOO",
"OOOOOOOOOOOOOOOOOOOOOOOOOOOOOOOOOOOOOOOOOOOOOOOOOOOOOOOOOOOOOOOO",
"OOOOOOOOOOOOOOOOOOOOOOOOOOOOOOOOOOOOOOOOOOOOOOOOOOOOOOOOOOOOOOOO",
"OOOOOOOOOOOOOOOOOOOOOOOOOOOOOOOOOOOOOOOOOOOOOOOOOOOOOOOOOOOOOOOO",
"OOOOOOOOOOOOOOOOOOOOOOOOOOOOOOOOOOOOOOOOOOOOOOOOOOOOOOOOOOOOOOOO",
"OOOOOOOOOOOOOOOOOOOOOOOOOOOOOOOOOOOOOOOOOOOOOOOOOOOOOOOOOOOOOOOO",
"OOOOOOOOOOOOOOOOOOOOOOOOOOOOOOOOOOOOOOOOOOOOOOOOOOOOOOOOOOOOOOOO",
"OOOOOOOOOOOOOOOOOOOOOOOOOOOOOOOOOOOOOOOOOOOOOOOOOOOOOOOOOOOOOOOO",
"OOOOOOOOOOOOOOOOOOOOOOOOOOOOOOOOOOOOOOOOOOOOOOOOOOOOOOOOOOOOOOOO",
"OOOOOOOOOOOOOOOOOOOOOOOOOOOOOOOOOOOOOOOOOOOOOOOOOOOOOOOOOOOOOOOO",
"OOOOOOOOOOOOOOOOOOOOOOOOOOOOOOOOOOOOOOOOOOOOOOOOOOOOOOOOOOOOOOOO",
"OOOOOOOOOOOOOOOOOOOOOOOOOOOOOOOOOOOOOOOOOOOOOOOOOOOOOOOOOOOOOOOO",
"OOOOOOOOOOOOOOOOOOOOOOOOOOOOOOOOOOOOOOOOOOOOOOOOOOOOOOOOOOOOOOOO",
"OOOOOOOOOOOOOOOOOOOOOOOOOOOOOOOOOOOOOOOOOOOOOOOOOOOOOOOOOOOOOOOO"
};
