/* XPM */
static char *result[] = {
/* columns rows colors chars-per-pixel */
"64 64 6 1 ",
"  c red",
". c #FF5656",
"X c #F88585",
"o c #F8A8A8",
"O c #FFDADA",
"+ c white",
/* pixels */
"++++++++++++++++OOooXX..              ..XXooOO++++++++++++++++++",
"++++++++++++++++OOooXX..              ..XXooOO++++++++++++++++++",
"++++++++++++++++OOooXX..              ..XXooOO++++++++++++++++++",
"++++++++++++++++OOooXX..              ..XXooOO++++++++++++++++++",
"++++++++++++++++OOooXX..              ..XXooOO++++++++++++++++++",
"++++++++++++++++OOooXX..              ..XXooOO++++++++++++++++++",
"++++++++++++++++OOooXX..              ..XXooOO++++++++++++++++++",
"++++++++++++++++OOooXX..              ..XXooOO++++++++++++++++++",
"++++++++++++++++OOooXX..              ..XXooOO++++++++++++++++++",
"++++++++++++++++OOooXX..              ..XXooOO++++++++++++++++++",
"++++++++++++++++OOooXX..              ..XXooOO++++++++++++++++++",
"++++++++++++++++OOooXX..              ..XXooOO++++++++++++++++++",
"++++++++++++++++OOooXX..              ..XXooOO++++++++++++++++++",
"++++++++++++++++OOooXX..              ..XXooOO++++++++++++++++++",
"++++++++++++++++OOooXX..              ..XXooOO++++++++++++++++++",
"++++++++++++++++OOooXX..              ..XXooOO++++++++++++++++++",
"++++++++++++++++OOooXX..              ..XXooOO++++++++++++++++++",
"++++++++++++++++OOooXX..              ..XXooOO++++++++++++++++++",
"++++++++++++++++OOooXX..              ..XXooOOOOOOOOOOOOOOOOOOOO",
"++++++++++++++++OOooXX..              ..XXooOOOOOOOOOOOOOOOOOOOO",
"++++++++++++++++OOooXX..              ..XXoooooooooooooooooooooo",
"++++++++++++++++OOooXX..              ..XXoooooooooooooooooooooo",
"++++++++++++++++OOooXX..              ..XXXXXXXXXXXXXXXXXXXXXXXX",
"++++++++++++++++OOooXX..              ..XXXXXXXXXXXXXXXXXXXXXXXX",
"++++++++++++++++OOooXX..              ..........................",
"++++++++++++++++OOooXX..              ..........................",
"++++++++++++++++OOooXX..                                        ",
"++++++++++++++++OOooXX..                                        ",
"++++++++++++++++OOooXX..                                        ",
"++++++++++++++++OOooXX..                                        ",
"++++++++++++++++OOooXX..                                        ",
"++++++++++++++++OOooXX..                                        ",
"++++++++++++++++OOooXX..                                        ",
"++++++++++++++++OOooXX..                                        ",
"++++++++++++++++OOooXX..                                        ",
"++++++++++++++++OOooXX..                                        ",
"++++++++++++++++OOooXX..                                        ",
"++++++++++++++++OOooXX..                                        ",
"++++++++++++++++OOooXX..                                        ",
"++++++++++++++++OOooXX..                                        ",
"++++++++++++++++OOooXX..........................................",
"++++++++++++++++OOooXX..........................................",
"++++++++++++++++OOooXXXXXXXXXXXXXXXXXXXXXXXXXXXXXXXXXXXXXXXXXXXX",
"++++++++++++++++OOooXXXXXXXXXXXXXXXXXXXXXXXXXXXXXXXXXXXXXXXXXXXX",
"++++++++++++++++OOoooooooooooooooooooooooooooooooooooooooooooooo",
"++++++++++++++++OOoooooooooooooooooooooooooooooooooooooooooooooo",
"++++++++++++++++OOOOOOOOOOOOOOOOOOOOOOOOOOOOOOOOOOOOOOOOOOOOOOOO",
"++++++++++++++++OOOOOOOOOOOOOOOOOOOOOOOOOOOOOOOOOOOOOOOOOOOOOOOO",
"++++++++++++++++++++++++++++++++++++++++++++++++++++++++++++++++",
"++++++++++++++++++++++++++++++++++++++++++++++++++++++++++++++++",
"++++++++++++++++++++++++++++++++++++++++++++++++++++++++++++++++",
"++++++++++++++++++++++++++++++++++++++++++++++++++++++++++++++++",
"++++++++++++++++++++++++++++++++++++++++++++++++++++++++++++++++",
"++++++++++++++++++++++++++++++++++++++++++++++++++++++++++++++++",
"++++++++++++++++++++++++++++++++++++++++++++++++++++++++++++++++",
"++++++++++++++++++++++++++++++++++++++++++++++++++++++++++++++++",
"++++++++++++++++++++++++++++++++++++++++++++++++++++++++++++++++",
"++++++++++++++++++++++++++++++++++++++++++++++++++++++++++++++++",
"++++++++++++++++++++++++++++++++++++++++++++++++++++++++++++++++",
"++++++++++++++++++++++++++++++++++++++++++++++++++++++++++++++++",
"++++++++++++++++++++++++++++++++++++++++++++++++++++++++++++++++",
"++++++++++++++++++++++++++++++++++++++++++++++++++++++++++++++++",
"++++++++++++++++++++++++++++++++++++++++++++++++++++++++++++++++",
"++++++++++++++++++++++++++++++++++++++++++++++++++++++++++++++++"
};
