/* XPM */
static char *result[] = {
/* columns rows colors chars-per-pixel */
"64 64 6 1 ",
"  c red",
". c #FF5656",
"X c #F88585",
"o c #F8A8A8",
"O c #FFDADA",
"+ c white",
/* pixels */
"++++++++++++++++++OOooXX..              ..XXooOO++++++++++++++++",
"++++++++++++++++++OOooXX..              ..XXooOO++++++++++++++++",
"++++++++++++++++++OOooXX..              ..XXooOO++++++++++++++++",
"++++++++++++++++++OOooXX..              ..XXooOO++++++++++++++++",
"++++++++++++++++++OOooXX..              ..XXooOO++++++++++++++++",
"++++++++++++++++++OOooXX..              ..XXooOO++++++++++++++++",
"++++++++++++++++++OOooXX..              ..XXooOO++++++++++++++++",
"++++++++++++++++++OOooXX..              ..XXooOO++++++++++++++++",
"++++++++++++++++++OOooXX..              ..XXooOO++++++++++++++++",
"++++++++++++++++++OOooXX..              ..XXooOO++++++++++++++++",
"++++++++++++++++++OOooXX..              ..XXooOO++++++++++++++++",
"++++++++++++++++++OOooXX..              ..XXooOO++++++++++++++++",
"++++++++++++++++++OOooXX..              ..XXooOO++++++++++++++++",
"++++++++++++++++++OOooXX..              ..XXooOO++++++++++++++++",
"++++++++++++++++++OOooXX..              ..XXooOO++++++++++++++++",
"++++++++++++++++++OOooXX..              ..XXooOO++++++++++++++++",
"++++++++++++++++++OOooXX..              ..XXooOO++++++++++++++++",
"++++++++++++++++++OOooXX..              ..XXooOO++++++++++++++++",
"OOOOOOOOOOOOOOOOOOOOooXX..              ..XXooOO++++++++++++++++",
"OOOOOOOOOOOOOOOOOOOOooXX..              ..XXooOO++++++++++++++++",
"ooooooooooooooooooooooXX..              ..XXooOO++++++++++++++++",
"ooooooooooooooooooooooXX..              ..XXooOO++++++++++++++++",
"XXXXXXXXXXXXXXXXXXXXXXXX..              ..XXooOO++++++++++++++++",
"XXXXXXXXXXXXXXXXXXXXXXXX..              ..XXooOO++++++++++++++++",
"..........................              ..XXooOO++++++++++++++++",
"..........................              ..XXooOO++++++++++++++++",
"                                        ..XXooOO++++++++++++++++",
"                                        ..XXooOO++++++++++++++++",
"                                        ..XXooOO++++++++++++++++",
"                                        ..XXooOO++++++++++++++++",
"                                        ..XXooOO++++++++++++++++",
"                                        ..XXooOO++++++++++++++++",
"                                        ..XXooOO++++++++++++++++",
"                                        ..XXooOO++++++++++++++++",
"                                        ..XXooOO++++++++++++++++",
"                                        ..XXooOO++++++++++++++++",
"                                        ..XXooOO++++++++++++++++",
"                                        ..XXooOO++++++++++++++++",
"                                        ..XXooOO++++++++++++++++",
"                                        ..XXooOO++++++++++++++++",
"..........................................XXooOO++++++++++++++++",
"..........................................XXooOO++++++++++++++++",
"XXXXXXXXXXXXXXXXXXXXXXXXXXXXXXXXXXXXXXXXXXXXooOO++++++++++++++++",
"XXXXXXXXXXXXXXXXXXXXXXXXXXXXXXXXXXXXXXXXXXXXooOO++++++++++++++++",
"ooooooooooooooooooooooooooooooooooooooooooooooOO++++++++++++++++",
"ooooooooooooooooooooooooooooooooooooooooooooooOO++++++++++++++++",
"OOOOOOOOOOOOOOOOOOOOOOOOOOOOOOOOOOOOOOOOOOOOOOOO++++++++++++++++",
"OOOOOOOOOOOOOOOOOOOOOOOOOOOOOOOOOOOOOOOOOOOOOOOO++++++++++++++++",
"++++++++++++++++++++++++++++++++++++++++++++++++++++++++++++++++",
"++++++++++++++++++++++++++++++++++++++++++++++++++++++++++++++++",
"++++++++++++++++++++++++++++++++++++++++++++++++++++++++++++++++",
"++++++++++++++++++++++++++++++++++++++++++++++++++++++++++++++++",
"++++++++++++++++++++++++++++++++++++++++++++++++++++++++++++++++",
"++++++++++++++++++++++++++++++++++++++++++++++++++++++++++++++++",
"++++++++++++++++++++++++++++++++++++++++++++++++++++++++++++++++",
"++++++++++++++++++++++++++++++++++++++++++++++++++++++++++++++++",
"++++++++++++++++++++++++++++++++++++++++++++++++++++++++++++++++",
"++++++++++++++++++++++++++++++++++++++++++++++++++++++++++++++++",
"++++++++++++++++++++++++++++++++++++++++++++++++++++++++++++++++",
"++++++++++++++++++++++++++++++++++++++++++++++++++++++++++++++++",
"++++++++++++++++++++++++++++++++++++++++++++++++++++++++++++++++",
"++++++++++++++++++++++++++++++++++++++++++++++++++++++++++++++++",
"++++++++++++++++++++++++++++++++++++++++++++++++++++++++++++++++",
"++++++++++++++++++++++++++++++++++++++++++++++++++++++++++++++++"
};
