/* XPM */
static char *result[] = {
/* columns rows colors chars-per-pixel */
"64 64 12 1 ",
"  c #EF0000",
". c red",
"X c #F71919",
"o c #FE3636",
"O c #FE4B4B",
"+ c #FF5E5E",
"@ c #FF7474",
"# c #FC8B8B",
"$ c #FFAEAE",
"% c #FED3D3",
"& c #FCEAEA",
"* c white",
/* pixels */
"****************************************************************",
"****************************************************************",
"**&&&&&&&&&&&&&&&&&&&&&&&&&&&&&&&&&&&&&&&&&&&&&&&&&&&&&&&&&&&&**",
"**&&&&&&&&&&&&&&&&&&&&&&&&&&&&&&&&&&&&&&&&&&&&&&&&&&&&&&&&&&&&**",
"**&&%%%%%%%%%%%%%%%%%%%%%%%%%%%%%%%%%%%%%%%%%%%%%%%%%%%%%%%%&&**",
"**&&%%%%%%%%%%%%%%%%%%%%%%%%%%%%%%%%%%%%%%%%%%%%%%%%%%%%%%%%&&**",
"**&&%%$$$$$$$$$$$$$$$$$$$$$$$$$$$$$$$$$$$$$$$$$$$$$$$$$$$$%%&&**",
"**&&%%$$$$$$$$$$$$$$$$$$$$$$$$$$$$$$$$$$$$$$$$$$$$$$$$$$$$%%&&**",
"**&&%%$$################################################$$%%&&**",
"**&&%%$$################################################$$%%&&**",
"**&&%%$$##@@@@@@@@@@@@@@@@@@@@@@@@@@@@@@@@@@@@@@@@@@@@##$$%%&&**",
"**&&%%$$##@@@@@@@@@@@@@@@@@@@@@@@@@@@@@@@@@@@@@@@@@@@@##$$%%&&**",
"**&&%%$$##@@++++++++++++++++++++++++++++++++++++++++@@##$$%%&&**",
"**&&%%$$##@@++++++++++++++++++++++++++++++++++++++++@@##$$%%&&**",
"**&&%%$$##@@++OOOOOOOOOOOOOOOOOOOOOOOOOOOOOOOOOOOO++@@##$$%%&&**",
"**&&%%$$##@@++OOOOOOOOOOOOOOOOOOOOOOOOOOOOOOOOOOOO++@@##$$%%&&**",
"**&&%%$$##@@++OOooooooooooooooooooooooooooooooooOO++@@##$$%%&&**",
"**&&%%$$##@@++OOooooooooooooooooooooooooooooooooOO++@@##$$%%&&**",
"**&&%%$$##@@++OOooXXXXXXXXXXXXXXXXXXXXXXXXXXXXooOO++@@##$$%%&&**",
"**&&%%$$##@@++OOooXXXXXXXXXXXXXXXXXXXXXXXXXXXXooOO++@@##$$%%&&**",
"**&&%%$$##@@++OOooXX........................XXooOO++@@##$$%%&&**",
"**&&%%$$##@@++OOooXX........................XXooOO++@@##$$%%&&**",
"**&&%%$$##@@++OOooXX....................  ..XXooOO++@@##$$%%&&**",
"**&&%%$$##@@++OOooXX....................  ..XXooOO++@@##$$%%&&**",
"**&&%%$$##@@++OOooXX....................  ..XXooOO++@@##$$%%&&**",
"**&&%%$$##@@++OOooXX....................  ..XXooOO++@@##$$%%&&**",
"**&&%%$$##@@++OOooXX....................  ..XXooOO++@@##$$%%&&**",
"**&&%%$$##@@++OOooXX....................  ..XXooOO++@@##$$%%&&**",
"**&&%%$$##@@++OOooXX....................  ..XXooOO++@@##$$%%&&**",
"**&&%%$$##@@++OOooXX....................  ..XXooOO++@@##$$%%&&**",
"**&&%%$$##@@++OOooXX....................  ..XXooOO++@@##$$%%&&**",
"**&&%%$$##@@++OOooXX....................  ..XXooOO++@@##$$%%&&**",
"**&&%%$$##@@++OOooXX....................  ..XXooOO++@@##$$%%&&**",
"**&&%%$$##@@++OOooXX....................  ..XXooOO++@@##$$%%&&**",
"**&&%%$$##@@++OOooXX....................  ..XXooOO++@@##$$%%&&**",
"**&&%%$$##@@++OOooXX....................  ..XXooOO++@@##$$%%&&**",
"**&&%%$$##@@++OOooXX....................  ..XXooOO++@@##$$%%&&**",
"**&&%%$$##@@++OOooXX....................  ..XXooOO++@@##$$%%&&**",
"**&&%%$$##@@++OOooXX....................  ..XXooOO++@@##$$%%&&**",
"**&&%%$$##@@++OOooXX....................  ..XXooOO++@@##$$%%&&**",
"**&&%%$$##@@++OOooXX..                    ..XXooOO++@@##$$%%&&**",
"**&&%%$$##@@++OOooXX..                    ..XXooOO++@@##$$%%&&**",
"**&&%%$$##@@++OOooXX........................XXooOO++@@##$$%%&&**",
"**&&%%$$##@@++OOooXX........................XXooOO++@@##$$%%&&**",
"**&&%%$$##@@++OOooXXXXXXXXXXXXXXXXXXXXXXXXXXXXooOO++@@##$$%%&&**",
"**&&%%$$##@@++OOooXXXXXXXXXXXXXXXXXXXXXXXXXXXXooOO++@@##$$%%&&**",
"**&&%%$$##@@++OOooooooooooooooooooooooooooooooooOO++@@##$$%%&&**",
"**&&%%$$##@@++OOooooooooooooooooooooooooooooooooOO++@@##$$%%&&**",
"**&&%%$$##@@++OOOOOOOOOOOOOOOOOOOOOOOOOOOOOOOOOOOO++@@##$$%%&&**",
"**&&%%$$##@@++OOOOOOOOOOOOOOOOOOOOOOOOOOOOOOOOOOOO++@@##$$%%&&**",
"**&&%%$$##@@++++++++++++++++++++++++++++++++++++++++@@##$$%%&&**",
"**&&%%$$##@@++++++++++++++++++++++++++++++++++++++++@@##$$%%&&**",
"**&&%%$$##@@@@@@@@@@@@@@@@@@@@@@@@@@@@@@@@@@@@@@@@@@@@##$$%%&&**",
"**&&%%$$##@@@@@@@@@@@@@@@@@@@@@@@@@@@@@@@@@@@@@@@@@@@@##$$%%&&**",
"**&&%%$$################################################$$%%&&**",
"**&&%%$$################################################$$%%&&**",
"**&&%%$$$$$$$$$$$$$$$$$$$$$$$$$$$$$$$$$$$$$$$$$$$$$$$$$$$$%%&&**",
"**&&%%$$$$$$$$$$$$$$$$$$$$$$$$$$$$$$$$$$$$$$$$$$$$$$$$$$$$%%&&**",
"**&&%%%%%%%%%%%%%%%%%%%%%%%%%%%%%%%%%%%%%%%%%%%%%%%%%%%%%%%%&&**",
"**&&%%%%%%%%%%%%%%%%%%%%%%%%%%%%%%%%%%%%%%%%%%%%%%%%%%%%%%%%&&**",
"**&&&&&&&&&&&&&&&&&&&&&&&&&&&&&&&&&&&&&&&&&&&&&&&&&&&&&&&&&&&&**",
"**&&&&&&&&&&&&&&&&&&&&&&&&&&&&&&&&&&&&&&&&&&&&&&&&&&&&&&&&&&&&**",
"****************************************************************",
"****************************************************************"
};
