/* XPM */
static char *result[] = {
/* columns rows colors chars-per-pixel */
"64 64 18 1 ",
"  c black",
". c #9B0A0A",
"X c #CA0000",
"o c #DE2D00",
"O c #DE5D00",
"+ c #FF7600",
"@ c #FF8D00",
"# c #FFAE00",
"$ c #008F85",
"% c #009D92",
"& c #00D9CA",
"* c #02FFEE",
"= c #4DFFF3",
"- c #6BFFF5",
"; c #7AFFF6",
": c gainsboro",
"> c #F3F3F3",
", c white",
/* pixels */
",,,,,,,,,,,,,,,,,,,,,,,,,,>>::::::>>,,,,,,,,,,,,,,,,,,,,,,,,,,,,",
",,,,,,,,,,,,,,,,,,,,,,,,,,>>::::::>>,,,,,,,,,,,,,,,,,,,,,,,,,,,,",
",,,,,,,,,,,,,,,,,,,,,,,,>>>>::..::>>>>,,,,,,,,,,,,,,,,,,,,,,,,,,",
",,,,,,,,,,,,,,,,,,,,,,,,>>>>::..::>>>>,,,,,,,,,,,,,,,,,,,,,,,,,,",
",,,,,,,,,,,,,,,,,,,,,,>>>>::::..::::>>>>,,,,,,,,,,,,,,,,,,,,,,,,",
",,,,,,,,,,,,,,,,,,,,,,>>>>::::..::::>>>>,,,,,,,,,,,,,,,,,,,,,,,,",
",,,,,,,,,,,,,,,,,,,,>>>>::::..XX..::::>>>>,,,,,,,,,,,,,,,,,,,,,,",
",,,,,,,,,,,,,,,,,,,,>>>>::::..XX..::::>>>>,,,,,,,,,,,,,,,,,,,,,,",
",,,,,,,,,,,,,,,,,,,,>>::::..XXooXX..::::>>,,,,,,,,,,,,,,,,,,,,,,",
",,,,,,,,,,,,,,,,,,,,>>::::..XXooXX..::::>>,,,,,,,,,,,,,,,,,,,,,,",
",,,,,,,,,,,,,,,,,,>>>>::..XXooOOooXX..::>>>>,,,,,,,,,,,,,,,,,,,,",
",,,,,,,,,,,,,,,,,,>>>>::..XXooOOooXX..::>>>>,,,,,,,,,,,,,,,,,,,,",
",,,,,,,,,,,,,,,,>>>>::::..ooOO++OOoo..::::>>>>,,,,,,,,,,,,,,,,,,",
",,,,,,,,,,,,,,,,>>>>::::..ooOO++OOoo..::::>>>>,,,,,,,,,,,,,,,,,,",
",,,,,,,,,,,,,,,,>>::::..XXOO++@@++OOXX..::::>>,,,,,,,,,,,,,,,,,,",
",,,,,,,,,,,,,,,,>>::::..XXOO++@@++OOXX..::::>>,,,,,,,,,,,,,,,,,,",
",,,,,,,,,,,,,,,,>>::..XXoo++@@##@@++ooXX..::>>,,,,,,,,,,,,,,,,,,",
",,,,,,,,,,,,,,,,>>::..XXoo++@@##@@++ooXX..::>>,,,,,,,,,,,,,,,,,,",
",,,,,,,,,,,,,,,,>>::..XXOO@@######@@OOXX..::>>,,,,,,,,,,,,,,,,,,",
",,,,,,,,,,,,,,,,>>::..XXOO@@######@@OOXX..::>>,,,,,,,,,,,,,,,,,,",
",,,,,,,,,,,,,,,,>>::..XXooOO++##++OOooXX..::>>,,,,,,,,,,,,,,,,,,",
",,,,,,,,,,,,,,,,>>::..XXooOO++##++OOooXX..::>>,,,,,,,,,,,,,,,,,,",
",,,,,,,,,,>>>>>>>>::::..XXOO@@##@@OOXX..::::>>>>>>>>,,,,,,,,,,,,",
",,,,,,,,,,>>>>>>>>::::..XXOO@@##@@OOXX..::::>>>>>>>>,,,,,,,,,,,,",
",,,,,,,,,,>>::::::>>::..XXooOO++OOooXX..::>>::::::>>,,,,,,,,,,,,",
",,,,,,,,,,>>::::::>>::..XXooOO++OOooXX..::>>::::::>>,,,,,,,,,,,,",
",,,,,,,,>>>>::..::::::::..oo++@@++oo..::::::::..::>>>>,,,,,,,,,,",
",,,,,,,,>>>>::..::::::::..oo++@@++oo..::::::::..::>>>>,,,,,,,,,,",
",,,,,,,,>>::::....::::..XXOOOO##OOOOXX..::::....::::>>>>,,,,,,,,",
",,,,,,,,>>::::....::::..XXOOOO##OOOOXX..::::....::::>>>>,,,,,,,,",
",,,,,,>>::::..XX......XXoo++@@++@@++ooXX......XX..::::>>,,,,,,,,",
",,,,,,>>::::..XX......XXoo++@@++@@++ooXX......XX..::::>>,,,,,,,,",
",,,,>>>>::..XXooooOO++ooOO@@##@@##@@OOoo++OOooooXX..::>>>>,,,,,,",
",,,,>>>>::..XXooooOO++ooOO@@##@@##@@OOoo++OOooooXX..::>>>>,,,,,,",
",,,,>>::::..ooOO@@++@@@@++##      ##++@@@@++@@OOoo..::::>>,,,,,,",
",,,,>>::::..ooOO@@++@@@@++##      ##++@@@@++@@OOoo..::::>>,,,,,,",
",,,,>>::....oo++@@@@OO##    ,,,,,,    ##OO@@@@++oo....::>>,,,,,,",
",,,,>>::....oo++@@@@OO##    ,,,,,,    ##OO@@@@++oo....::>>,,,,,,",
",,,,>>::....XXooooXX    ,,$$%%$$%%$$,,    XXooooXX....::>>,,,,,,",
",,,,>>::....XXooooXX    ,,$$%%$$%%$$,,    XXooooXX....::>>,,,,,,",
",,,,>>::::....XXXX  ,,,,%%**&&**&&**$$,,,,  XXXX....::::>>,,,,,,",
",,,,>>::::....XXXX  ,,,,%%**&&**&&**$$,,,,  XXXX....::::>>,,,,,,",
",,,,>>>>::::....  ,,,,$$**;;==  ==;;**$$,,,,  ....::::>>>>,,,,,,",
",,,,>>>>::::....  ,,,,$$**;;==  ==;;**$$,,,,  ....::::>>>>,,,,,,",
",,,,,,>>>>::::  ,,,,,,%%&&==      ==&&%%,,,,,,  ::::>>>>,,,,,,,,",
",,,,,,>>>>::::  ,,,,,,%%&&==      ==&&%%,,,,,,  ::::>>>>,,,,,,,,",
",,,,,,,,>>::  ,,,,,,,,$$**          **$$,,,,,,,,  ::>>,,,,,,,,,,",
",,,,,,,,>>::  ,,,,,,,,$$**          **$$,,,,,,,,  ::>>,,,,,,,,,,",
",,,,,,,,>>::  ,,,,,,,,%%&&==      ==&&%%,,,,,,,,  ::>>,,,,,,,,,,",
",,,,,,,,>>::  ,,,,,,,,%%&&==      ==&&%%,,,,,,,,  ::>>,,,,,,,,,,",
",,,,,,,,>>::::  ,,,,,,$$**;;==  ==--**$$,,,,,,  ::::>>,,,,,,,,,,",
",,,,,,,,>>::::  ,,,,,,$$**;;==  ==--**$$,,,,,,  ::::>>,,,,,,,,,,",
",,,,,,,,>>>>::::  ,,,,,,$$**&&**&&**$$,,,,,,  ::::>>>>,,,,,,,,,,",
",,,,,,,,>>>>::::  ,,,,,,$$**&&**&&**$$,,,,,,  ::::>>>>,,,,,,,,,,",
",,,,,,,,,,>>>>::::    ,,,,$$%%$$%%$$,,,,    ::::>>>>,,,,,,,,,,,,",
",,,,,,,,,,>>>>::::    ,,,,$$%%$$%%$$,,,,    ::::>>>>,,,,,,,,,,,,",
",,,,,,,,,,,,>>>>::::::    ,,,,,,,,,,    ::::::>>>>,,,,,,,,,,,,,,",
",,,,,,,,,,,,>>>>::::::    ,,,,,,,,,,    ::::::>>>>,,,,,,,,,,,,,,",
",,,,,,,,,,,,,,>>>>>>::::::          ::::::>>>>>>,,,,,,,,,,,,,,,,",
",,,,,,,,,,,,,,>>>>>>::::::          ::::::>>>>>>,,,,,,,,,,,,,,,,",
",,,,,,,,,,,,,,,,,,>>>>>>::::::::::::::>>>>>>,,,,,,,,,,,,,,,,,,,,",
",,,,,,,,,,,,,,,,,,>>>>>>::::::::::::::>>>>>>,,,,,,,,,,,,,,,,,,,,",
",,,,,,,,,,,,,,,,,,,,,,>>>>>>>>>>>>>>>>>>,,,,,,,,,,,,,,,,,,,,,,,,",
",,,,,,,,,,,,,,,,,,,,,,>>>>>>>>>>>>>>>>>>,,,,,,,,,,,,,,,,,,,,,,,,"
};
