/* XPM */
static char *result[] = {
/* columns rows colors chars-per-pixel */
"64 64 6 1 ",
"  c red",
". c #FF5656",
"X c #F88585",
"o c #F8A8A8",
"O c #FFDADA",
"+ c white",
/* pixels */
"++++++++++++++++++++++++++++++++++++++++++++++++++++++++++++++++",
"++++++++++++++++++++++++++++++++++++++++++++++++++++++++++++++++",
"++++++++++++++++++++++++++++++++++++++++++++++++++++++++++++++++",
"++++++++++++++++++++++++++++++++++++++++++++++++++++++++++++++++",
"++++++++++++++++++++++++++++++++++++++++++++++++++++++++++++++++",
"++++++++++++++++++++++++++++++++++++++++++++++++++++++++++++++++",
"++++++++++++++++++++++++++++++++++++++++++++++++++++++++++++++++",
"++++++++++++++++++++++++++++++++++++++++++++++++++++++++++++++++",
"++++++++++++++++++++++++++++++++++++++++++++++++++++++++++++++++",
"++++++++++++++++++++++++++++++++++++++++++++++++++++++++++++++++",
"++++++++++++++++++++++++++++++++++++++++++++++++++++++++++++++++",
"++++++++++++++++++++++++++++++++++++++++++++++++++++++++++++++++",
"++++++++++++++++++++++++++++++++++++++++++++++++++++++++++++++++",
"++++++++++++++++++++++++++++++++++++++++++++++++++++++++++++++++",
"++++++++++++++++++++++++++++++++++++++++++++++++++++++++++++++++",
"++++++++++++++++++++++++++++++++++++++++++++++++++++++++++++++++",
"++++++++++++++++OOOOOOOOOOOOOOOOOOOOOOOOOOOOOOOOOOOOOOOOOOOOOOOO",
"++++++++++++++++OOOOOOOOOOOOOOOOOOOOOOOOOOOOOOOOOOOOOOOOOOOOOOOO",
"++++++++++++++++OOoooooooooooooooooooooooooooooooooooooooooooooo",
"++++++++++++++++OOoooooooooooooooooooooooooooooooooooooooooooooo",
"++++++++++++++++OOooXXXXXXXXXXXXXXXXXXXXXXXXXXXXXXXXXXXXXXXXXXXX",
"++++++++++++++++OOooXXXXXXXXXXXXXXXXXXXXXXXXXXXXXXXXXXXXXXXXXXXX",
"++++++++++++++++OOooXX..........................................",
"++++++++++++++++OOooXX..........................................",
"++++++++++++++++OOooXX..                                        ",
"++++++++++++++++OOooXX..                                        ",
"++++++++++++++++OOooXX..                                        ",
"++++++++++++++++OOooXX..                                        ",
"++++++++++++++++OOooXX..                                        ",
"++++++++++++++++OOooXX..                                        ",
"++++++++++++++++OOooXX..                                        ",
"++++++++++++++++OOooXX..                                        ",
"++++++++++++++++OOooXX..                                        ",
"++++++++++++++++OOooXX..                                        ",
"++++++++++++++++OOooXX..                                        ",
"++++++++++++++++OOooXX..                                        ",
"++++++++++++++++OOooXX..                                        ",
"++++++++++++++++OOooXX..                                        ",
"++++++++++++++++OOooXX..              ..........................",
"++++++++++++++++OOooXX..              ..........................",
"++++++++++++++++OOooXX..              ..XXXXXXXXXXXXXXXXXXXXXXXX",
"++++++++++++++++OOooXX..              ..XXXXXXXXXXXXXXXXXXXXXXXX",
"++++++++++++++++OOooXX..              ..XXoooooooooooooooooooooo",
"++++++++++++++++OOooXX..              ..XXoooooooooooooooooooooo",
"++++++++++++++++OOooXX..              ..XXooOOOOOOOOOOOOOOOOOOOO",
"++++++++++++++++OOooXX..              ..XXooOOOOOOOOOOOOOOOOOOOO",
"++++++++++++++++OOooXX..              ..XXooOO++++++++++++++++++",
"++++++++++++++++OOooXX..              ..XXooOO++++++++++++++++++",
"++++++++++++++++OOooXX..              ..XXooOO++++++++++++++++++",
"++++++++++++++++OOooXX..              ..XXooOO++++++++++++++++++",
"++++++++++++++++OOooXX..              ..XXooOO++++++++++++++++++",
"++++++++++++++++OOooXX..              ..XXooOO++++++++++++++++++",
"++++++++++++++++OOooXX..              ..XXooOO++++++++++++++++++",
"++++++++++++++++OOooXX..              ..XXooOO++++++++++++++++++",
"++++++++++++++++OOooXX..              ..XXooOO++++++++++++++++++",
"++++++++++++++++OOooXX..              ..XXooOO++++++++++++++++++",
"++++++++++++++++OOooXX..              ..XXooOO++++++++++++++++++",
"++++++++++++++++OOooXX..              ..XXooOO++++++++++++++++++",
"++++++++++++++++OOooXX..              ..XXooOO++++++++++++++++++",
"++++++++++++++++OOooXX..              ..XXooOO++++++++++++++++++",
"++++++++++++++++OOooXX..              ..XXooOO++++++++++++++++++",
"++++++++++++++++OOooXX..              ..XXooOO++++++++++++++++++",
"++++++++++++++++OOooXX..              ..XXooOO++++++++++++++++++",
"++++++++++++++++OOooXX..              ..XXooOO++++++++++++++++++"
};
