/* XPM */
static char *result[] = {
/* columns rows colors chars-per-pixel */
"64 64 6 1 ",
"  c red",
". c #FF5656",
"X c #F88585",
"o c #F8A8A8",
"O c #FFDADA",
"+ c white",
/* pixels */
"++++++++++++++++++++++++++++++++++++++++++++++++++++++++++++++++",
"++++++++++++++++++++++++++++++++++++++++++++++++++++++++++++++++",
"++++++++++++++++++++++++++++++++++++++++++++++++++++++++++++++++",
"++++++++++++++++++++++++++++++++++++++++++++++++++++++++++++++++",
"++++++++++++++++++++++++++++++++++++++++++++++++++++++++++++++++",
"++++++++++++++++++++++++++++++++++++++++++++++++++++++++++++++++",
"++++++++++++++++++++++++++++++++++++++++++++++++++++++++++++++++",
"++++++++++++++++++++++++++++++++++++++++++++++++++++++++++++++++",
"++++++++++++++++++++++++++++++++++++++++++++++++++++++++++++++++",
"++++++++++++++++++++++++++++++++++++++++++++++++++++++++++++++++",
"++++++++++++++++++++++++++++++++++++++++++++++++++++++++++++++++",
"++++++++++++++++++++++++++++++++++++++++++++++++++++++++++++++++",
"++++++++++++++++++++++++++++++++++++++++++++++++++++++++++++++++",
"++++++++++++++++++++++++++++++++++++++++++++++++++++++++++++++++",
"++++++++++++++++++++++++++++++++++++++++++++++++++++++++++++++++",
"++++++++++++++++++++++++++++++++++++++++++++++++++++++++++++++++",
"OOOOOOOOOOOOOOOOOOOOOOOOOOOOOOOOOOOOOOOOOOOOOOOO++++++++++++++++",
"OOOOOOOOOOOOOOOOOOOOOOOOOOOOOOOOOOOOOOOOOOOOOOOO++++++++++++++++",
"ooooooooooooooooooooooooooooooooooooooooooooooOO++++++++++++++++",
"ooooooooooooooooooooooooooooooooooooooooooooooOO++++++++++++++++",
"XXXXXXXXXXXXXXXXXXXXXXXXXXXXXXXXXXXXXXXXXXXXooOO++++++++++++++++",
"XXXXXXXXXXXXXXXXXXXXXXXXXXXXXXXXXXXXXXXXXXXXooOO++++++++++++++++",
"..........................................XXooOO++++++++++++++++",
"..........................................XXooOO++++++++++++++++",
"                                        ..XXooOO++++++++++++++++",
"                                        ..XXooOO++++++++++++++++",
"                                        ..XXooOO++++++++++++++++",
"                                        ..XXooOO++++++++++++++++",
"                                        ..XXooOO++++++++++++++++",
"                                        ..XXooOO++++++++++++++++",
"                                        ..XXooOO++++++++++++++++",
"                                        ..XXooOO++++++++++++++++",
"                                        ..XXooOO++++++++++++++++",
"                                        ..XXooOO++++++++++++++++",
"                                        ..XXooOO++++++++++++++++",
"                                        ..XXooOO++++++++++++++++",
"                                        ..XXooOO++++++++++++++++",
"                                        ..XXooOO++++++++++++++++",
"..........................              ..XXooOO++++++++++++++++",
"..........................              ..XXooOO++++++++++++++++",
"XXXXXXXXXXXXXXXXXXXXXXXX..              ..XXooOO++++++++++++++++",
"XXXXXXXXXXXXXXXXXXXXXXXX..              ..XXooOO++++++++++++++++",
"ooooooooooooooooooooooXX..              ..XXooOO++++++++++++++++",
"ooooooooooooooooooooooXX..              ..XXooOO++++++++++++++++",
"OOOOOOOOOOOOOOOOOOOOooXX..              ..XXooOO++++++++++++++++",
"OOOOOOOOOOOOOOOOOOOOooXX..              ..XXooOO++++++++++++++++",
"++++++++++++++++++OOooXX..              ..XXooOO++++++++++++++++",
"++++++++++++++++++OOooXX..              ..XXooOO++++++++++++++++",
"++++++++++++++++++OOooXX..              ..XXooOO++++++++++++++++",
"++++++++++++++++++OOooXX..              ..XXooOO++++++++++++++++",
"++++++++++++++++++OOooXX..              ..XXooOO++++++++++++++++",
"++++++++++++++++++OOooXX..              ..XXooOO++++++++++++++++",
"++++++++++++++++++OOooXX..              ..XXooOO++++++++++++++++",
"++++++++++++++++++OOooXX..              ..XXooOO++++++++++++++++",
"++++++++++++++++++OOooXX..              ..XXooOO++++++++++++++++",
"++++++++++++++++++OOooXX..              ..XXooOO++++++++++++++++",
"++++++++++++++++++OOooXX..              ..XXooOO++++++++++++++++",
"++++++++++++++++++OOooXX..              ..XXooOO++++++++++++++++",
"++++++++++++++++++OOooXX..              ..XXooOO++++++++++++++++",
"++++++++++++++++++OOooXX..              ..XXooOO++++++++++++++++",
"++++++++++++++++++OOooXX..              ..XXooOO++++++++++++++++",
"++++++++++++++++++OOooXX..              ..XXooOO++++++++++++++++",
"++++++++++++++++++OOooXX..              ..XXooOO++++++++++++++++",
"++++++++++++++++++OOooXX..              ..XXooOO++++++++++++++++"
};
